<?xml version="1.0" encoding="utf-8"?>
<!-- Generator: Adobe Illustrator 25.2.1, SVG Export Plug-In . SVG Version: 6.00 Build 0)  -->
<svg version="1.1" id="Camada_1" xmlns="http://www.w3.org/2000/svg" xmlns:xlink="http://www.w3.org/1999/xlink" x="0px" y="0px"
	 viewBox="0 0 448 90" style="enable-background:new 0 0 448 90;" xml:space="preserve">
<style type="text/css">
	.st0{fill:#FFFFFF;}
</style>
<g>
	<path class="st0" d="M45.39,9.47c18.31,0,17.24,14.32,5.54,16.25c-0.44-7.24-1.89-14.63-5.73-14.63c-3.71,0-5.92,3.77-6.54,8.39
		c-1.95,13.78,20.2,11.47,17.81,26.88c-1.26,8.01-7.55,14.71-19.57,14.71c-16.42,0-18.75-11.86-6.48-17.87
		c0.69,8.62,2.71,16.25,7.87,16.25c4.34,0,7.05-3.54,7.74-8.01c1.83-12.24-20.45-12.4-18-28.26C29.28,15.25,36.32,9.47,45.39,9.47z"
		/>
	<path class="st0" d="M79.3,24.79c9.94,0,14.22,7.7,12.52,17.87c-1.57,10.09-8.5,18.25-18.37,18.25c-9.88,0-13.97-8.16-12.33-18.25
		C62.75,32.57,69.48,24.79,79.3,24.79z M73.57,59.76c3.96,0,7.24-8.78,8.56-17.17c1.32-8.24,0.94-16.71-3.08-16.71
		c-3.96,0-6.92,8.32-8.31,16.71C69.42,50.98,69.67,59.76,73.57,59.76z"/>
	<path class="st0" d="M101.19,11.63c0.38-2.31,0.63-3.7-0.69-5.24h6.8c3.08,0,3.4,2.16,2.83,5.62l-6.86,43.05
		c-0.32,2.31-0.63,3.7,0.69,5.24H97.1c-3.02,0-3.34-2.16-2.71-5.62L101.19,11.63z"/>
	<path class="st0" d="M132.78,30.42l0.82-5.01h9l-4.78,29.65c-0.32,2.31-0.63,3.7,0.69,5.24h-6.86c-2.39,0-3.08-1.39-2.96-3.62
		c-2.45,2.7-5.41,4.24-9,4.24c-7.99,0-11.71-7.62-9.94-18.25c1.76-10.55,7.49-17.87,15.35-17.87
		C129.57,24.79,132.03,27.18,132.78,30.42z M122.02,58.99c3.33,0,6.98-7.08,8.5-14.86l1.01-5.85c0.44-6.55-2.2-11.17-4.41-11.17
		c-3.59,0-6.36,7.24-7.74,15.48C118.06,50.98,118.56,58.99,122.02,58.99z"/>
	<path class="st0" d="M153.86,25.41c3.02,0,3.33,2.08,2.83,5.62l-0.57,2.46c2.39-5.24,5.6-8.7,9.12-8.7c5.47,0,6.54,7.39,1.01,14.71
		c-0.88-3.39-2.89-5.62-5.03-5.62c-0.19,0-0.31,0.08-0.5,0.08c-2.64,0.38-5.35,3.93-6.23,9.32l-1.76,11.78
		c-0.31,2.31-0.63,3.7,0.69,5.24h-6.86c-3.02,0-3.33-2.16-2.71-5.62l3.84-24.03c0.31-2.31,0.69-3.77-0.69-5.24H153.86z"/>
	<path class="st0" d="M219.05,47.05l3.4,4.16c-3.71,6.39-10.7,9.86-17.31,9.86c-13.21,0-19.57-11.24-17.3-25.88
		c2.27-14.71,12.15-25.72,24.92-25.72c6.23,0,13.09,2.39,14.1,8.62c1.2,7.86-4.84,11.63-9.38,13.32c0.82-9.24,0.5-19.95-5.41-19.95
		c-6.99,0-11.77,10.63-13.91,23.64s0.63,23.95,7.36,23.95C209.8,59.06,213.51,55.83,219.05,47.05z"/>
	<path class="st0" d="M250.7,30.42l0.82-5.01h9l-4.78,29.65c-0.32,2.31-0.63,3.7,0.69,5.24h-6.86c-2.39,0-3.08-1.39-2.96-3.62
		c-2.45,2.7-5.41,4.24-9,4.24c-7.99,0-11.71-7.62-9.94-18.25c1.76-10.55,7.49-17.87,15.35-17.87
		C247.49,24.79,249.94,27.18,250.7,30.42z M239.94,58.99c3.33,0,6.98-7.08,8.5-14.86l1.01-5.85c0.44-6.55-2.2-11.17-4.41-11.17
		c-3.59,0-6.36,7.24-7.74,15.48C235.97,50.98,236.47,58.99,239.94,58.99z"/>
	<path class="st0" d="M268.56,11.63c0.38-2.31,0.63-3.7-0.69-5.24h6.8c3.08,0,3.4,2.16,2.83,5.62l-6.86,43.05
		c-0.31,2.31-0.63,3.7,0.69,5.24h-6.86c-3.02,0-3.33-2.16-2.71-5.62L268.56,11.63z"/>
	<path class="st0" d="M295.94,24.79c14.35,0,14.41,15.02,3.4,16.25c0.38-6.39,0.44-15.17-3.84-15.17c-4.03,0-7.49,8.32-8.87,16.71
		c-1.32,8.39-0.44,17.17,4.53,17.17c3.34,0,6.67-3,10.07-8.55l2.14,2.54c-3.02,5.08-6.48,6.7-11.33,7.01l-2.2,3.85
		c5.41,1.69,4.34,10.32-9.25,10.32l0.31-2.16c2.77,0,7.93-3.54,5.03-8.16l2.2-4c-0.06,0-0.19,0-0.19,0
		c-8.43-1.23-12.4-8.16-10.89-17.94C278.69,32.57,286.25,24.79,295.94,24.79z"/>
	<path class="st0" d="M331.68,30.42l0.82-5.01h9l-4.78,29.65c-0.31,2.31-0.63,3.7,0.69,5.24h-6.86c-2.39,0-3.08-1.39-2.96-3.62
		c-2.45,2.7-5.41,4.24-9,4.24c-7.99,0-11.7-7.62-9.94-18.25c1.76-10.55,7.49-17.87,15.35-17.87
		C328.47,24.79,330.92,27.18,331.68,30.42z M320.92,58.99c3.33,0,6.99-7.08,8.5-14.86l1.01-5.85c0.44-6.55-2.2-11.17-4.4-11.17
		c-3.59,0-6.36,7.24-7.74,15.48C316.95,50.98,317.45,58.99,320.92,58.99z"/>
	<path class="st0" d="M366.22,30.42l2.89-18.79c0.38-2.31,0.69-3.7-0.69-5.24h6.86c3.02,0,3.4,2.16,2.83,5.62l-6.86,43.05
		c-0.31,2.31-0.63,3.7,0.69,5.24h-6.86c-2.39,0-3.08-1.39-2.96-3.62c-2.45,2.7-5.41,4.24-9,4.24c-7.99,0-11.7-7.62-9.94-18.25
		c1.76-10.55,7.49-17.87,15.35-17.87C363.01,24.79,365.47,27.18,366.22,30.42z M363.95,44.13l1.01-5.85
		c0.44-6.55-2.2-11.17-4.4-11.17c-3.59,0-6.36,7.24-7.74,15.48c-1.32,8.39-0.82,16.4,2.64,16.4
		C358.79,58.99,362.44,51.9,363.95,44.13z"/>
	<path class="st0" d="M395.92,24.79c9.94,0,14.22,7.7,12.52,17.87c-1.57,10.09-8.5,18.25-18.37,18.25
		c-9.88,0-13.97-8.16-12.33-18.25C379.37,32.57,386.1,24.79,395.92,24.79z M390.19,59.76c3.96,0,7.24-8.78,8.56-17.17
		c1.32-8.24,0.94-16.71-3.08-16.71c-3.96,0-6.92,8.32-8.31,16.71C386.04,50.98,386.29,59.76,390.19,59.76z"/>
	<path class="st0" d="M428.39,24.79c13.53,0,15.23,10.7,4.09,11.71c-0.63-5.39-0.94-10.63-4.28-10.63c-2.45,0-3.96,2.23-4.4,5.08
		c-1.32,9.47,15.67,7.85,13.66,20.1c-1.2,6.85-8.56,9.86-15.54,9.86c-13.03,0-15.48-10.4-4.47-12.78c0.19,5.47,1.2,11.63,5.03,11.63
		c2.9,0,4.66-2.23,5.1-5.24c1.32-8.63-15.48-8.39-13.59-19.95C414.98,28.26,422.53,24.79,428.39,24.79z"/>
	<path class="st0" d="M193.37,81.84c-13.06-13.8-30.32-23.58-49.73-27.34c-3.29-0.64-6.64-1.08-10.04-1.36
		c-1.04-0.09-2.08-0.18-3.13-0.23c-1.48-0.07-3-0.1-4.51-0.1c-4.91,0-9.74,0.39-14.45,1.13c-7.04,1.1-13.81,3-20.23,5.58
		c-1.16,0.47-2.31,0.93-3.44,1.44C87.81,60.98,87.79,61,87.76,61c-0.84,0.42-1.68,0.83-2.54,1.21c-0.02,0-0.05,0.02-0.07,0.03
		c-4.65,2.09-9.5,3.79-14.51,5.11c-2.13,0.56-4.3,1.01-6.49,1.42c-1.26,0.23-2.51,0.47-3.79,0.65c-2.07,0.3-4.16,0.53-6.28,0.69
		c-2.33,0.18-4.68,0.29-7.06,0.29c-13.3,0-25.94-2.79-37.38-7.83c-0.15-0.07-0.3-0.1-0.44-0.1c-0.9,0-1.44,1.26-0.57,1.89
		c14.14,10.25,31.29,16.61,49.88,17.51c0.33,0.01,0.67,0.01,1,0.02c1.16,0.04,2.34,0.08,3.52,0.08c2.23,0,4.44-0.11,6.63-0.26
		c10.68-0.76,20.88-3.3,30.26-7.37c10.1-4.55,21.15-7.35,32.78-8.02c1.79-0.1,3.59-0.16,5.41-0.16c1.59,0,3.16,0.05,4.73,0.13
		c18.29,0.92,35.19,7.11,49.19,17.12c0.2,0.14,0.41,0.2,0.6,0.2C193.43,83.61,194.06,82.57,193.37,81.84z"/>
</g>
</svg>
