<?xml version="1.0" encoding="utf-8"?>
<!-- Generator: Adobe Illustrator 25.2.1, SVG Export Plug-In . SVG Version: 6.00 Build 0)  -->
<svg version="1.1" id="Camada_1" xmlns="http://www.w3.org/2000/svg" xmlns:xlink="http://www.w3.org/1999/xlink" x="0px" y="0px"
	 viewBox="0 0 448 90" style="enable-background:new 0 0 448 90;" xml:space="preserve">
<style type="text/css">
	.st0{fill:#ED1C24;}
</style>
<g>
	<path class="st0" d="M45.4,9.5c18.3,0,17.2,14.3,5.5,16.2c-0.4-7.2-1.9-14.6-5.7-14.6c-3.7,0-5.9,3.8-6.5,8.4
		c-2,13.8,20.2,11.5,17.8,26.9c-1.3,8-7.5,14.7-19.6,14.7c-16.4,0-18.8-11.9-6.5-17.9c0.7,8.6,2.7,16.2,7.9,16.2c4.3,0,7-3.5,7.7-8
		C47.9,39.2,25.6,39,28,23.2C29.3,15.2,36.3,9.5,45.4,9.5z"/>
	<path class="st0" d="M79.3,24.8c9.9,0,14.2,7.7,12.5,17.9c-1.6,10.1-8.5,18.2-18.4,18.2c-9.9,0-14-8.2-12.3-18.2
		C62.8,32.6,69.5,24.8,79.3,24.8z M73.6,59.8c4,0,7.2-8.8,8.6-17.2c1.3-8.2,0.9-16.7-3.1-16.7c-4,0-6.9,8.3-8.3,16.7
		C69.4,51,69.7,59.8,73.6,59.8z"/>
	<path class="st0" d="M101.2,11.6c0.4-2.3,0.6-3.7-0.7-5.2h6.8c3.1,0,3.4,2.2,2.8,5.6l-6.9,43c-0.3,2.3-0.6,3.7,0.7,5.2h-6.9
		c-3,0-3.3-2.2-2.7-5.6L101.2,11.6z"/>
	<path class="st0" d="M132.8,30.4l0.8-5h9l-4.8,29.6c-0.3,2.3-0.6,3.7,0.7,5.2h-6.9c-2.4,0-3.1-1.4-3-3.6c-2.4,2.7-5.4,4.2-9,4.2
		c-8,0-11.7-7.6-9.9-18.2c1.8-10.5,7.5-17.9,15.3-17.9C129.6,24.8,132,27.2,132.8,30.4z M122,59c3.3,0,7-7.1,8.5-14.9l1-5.8
		c0.4-6.5-2.2-11.2-4.4-11.2c-3.6,0-6.4,7.2-7.7,15.5C118.1,51,118.6,59,122,59z"/>
	<path class="st0" d="M153.9,25.4c3,0,3.3,2.1,2.8,5.6l-0.6,2.5c2.4-5.2,5.6-8.7,9.1-8.7c5.5,0,6.5,7.4,1,14.7
		c-0.9-3.4-2.9-5.6-5-5.6c-0.2,0-0.3,0.1-0.5,0.1c-2.6,0.4-5.4,3.9-6.2,9.3l-1.8,11.8c-0.3,2.3-0.6,3.7,0.7,5.2h-6.9
		c-3,0-3.3-2.2-2.7-5.6l3.8-24c0.3-2.3,0.7-3.8-0.7-5.2C147,25.4,153.9,25.4,153.9,25.4z"/>
	<path class="st0" d="M219.1,47l3.4,4.2c-3.7,6.4-10.7,9.9-17.3,9.9c-13.2,0-19.6-11.2-17.3-25.9c2.3-14.7,12.1-25.7,24.9-25.7
		c6.2,0,13.1,2.4,14.1,8.6c1.2,7.9-4.8,11.6-9.4,13.3c0.8-9.2,0.5-20-5.4-20c-7,0-11.8,10.6-13.9,23.6s0.6,24,7.4,24
		C209.8,59.1,213.5,55.8,219.1,47z"/>
	<path class="st0" d="M250.7,30.4l0.8-5h9l-4.8,29.6c-0.3,2.3-0.6,3.7,0.7,5.2h-6.9c-2.4,0-3.1-1.4-3-3.6c-2.4,2.7-5.4,4.2-9,4.2
		c-8,0-11.7-7.6-9.9-18.2c1.8-10.5,7.5-17.9,15.4-17.9C247.5,24.8,249.9,27.2,250.7,30.4z M239.9,59c3.3,0,7-7.1,8.5-14.9l1-5.8
		c0.4-6.5-2.2-11.2-4.4-11.2c-3.6,0-6.4,7.2-7.7,15.5C236,51,236.5,59,239.9,59z"/>
	<path class="st0" d="M268.6,11.6c0.4-2.3,0.6-3.7-0.7-5.2h6.8c3.1,0,3.4,2.2,2.8,5.6l-6.9,43c-0.3,2.3-0.6,3.7,0.7,5.2h-6.9
		c-3,0-3.3-2.2-2.7-5.6L268.6,11.6z"/>
	<path class="st0" d="M295.9,24.8c14.4,0,14.4,15,3.4,16.2c0.4-6.4,0.4-15.2-3.8-15.2c-4,0-7.5,8.3-8.9,16.7
		c-1.3,8.4-0.4,17.2,4.5,17.2c3.3,0,6.7-3,10.1-8.5l2.1,2.5c-3,5.1-6.5,6.7-11.3,7l-2.2,3.8c5.4,1.7,4.3,10.3-9.2,10.3l0.3-2.2
		c2.8,0,7.9-3.5,5-8.2l2.2-4c-0.1,0-0.2,0-0.2,0c-8.4-1.2-12.4-8.2-10.9-17.9C278.7,32.6,286.2,24.8,295.9,24.8z"/>
	<path class="st0" d="M331.7,30.4l0.8-5h9l-4.8,29.6c-0.3,2.3-0.6,3.7,0.7,5.2h-6.9c-2.4,0-3.1-1.4-3-3.6c-2.5,2.7-5.4,4.2-9,4.2
		c-8,0-11.7-7.6-9.9-18.2c1.8-10.5,7.5-17.9,15.4-17.9C328.5,24.8,330.9,27.2,331.7,30.4z M320.9,59c3.3,0,7-7.1,8.5-14.9l1-5.8
		c0.4-6.5-2.2-11.2-4.4-11.2c-3.6,0-6.4,7.2-7.7,15.5C317,51,317.5,59,320.9,59z"/>
	<path class="st0" d="M366.2,30.4l2.9-18.8c0.4-2.3,0.7-3.7-0.7-5.2h6.9c3,0,3.4,2.2,2.8,5.6l-6.9,43c-0.3,2.3-0.6,3.7,0.7,5.2h-6.9
		c-2.4,0-3.1-1.4-3-3.6c-2.5,2.7-5.4,4.2-9,4.2c-8,0-11.7-7.6-9.9-18.2c1.8-10.5,7.5-17.9,15.4-17.9C363,24.8,365.5,27.2,366.2,30.4
		z M364,44.1l1-5.8c0.4-6.5-2.2-11.2-4.4-11.2c-3.6,0-6.4,7.2-7.7,15.5C351.5,51,352,59,355.5,59C358.8,59,362.4,51.9,364,44.1z"/>
	<path class="st0" d="M395.9,24.8c9.9,0,14.2,7.7,12.5,17.9c-1.6,10.1-8.5,18.2-18.4,18.2c-9.9,0-14-8.2-12.3-18.2
		C379.4,32.6,386.1,24.8,395.9,24.8z M390.2,59.8c4,0,7.2-8.8,8.6-17.2c1.3-8.2,0.9-16.7-3.1-16.7c-4,0-6.9,8.3-8.3,16.7
		C386,51,386.3,59.8,390.2,59.8z"/>
	<path class="st0" d="M428.4,24.8c13.5,0,15.2,10.7,4.1,11.7c-0.6-5.4-0.9-10.6-4.3-10.6c-2.5,0-4,2.2-4.4,5.1
		c-1.3,9.5,15.7,7.9,13.7,20.1c-1.2,6.8-8.6,9.9-15.5,9.9c-13,0-15.5-10.4-4.5-12.8c0.2,5.5,1.2,11.6,5,11.6c2.9,0,4.7-2.2,5.1-5.2
		c1.3-8.6-15.5-8.4-13.6-20C415,28.3,422.5,24.8,428.4,24.8z"/>
	<path class="st0" d="M193.4,81.8C180.3,68,163,58.3,143.6,54.5c-3.3-0.6-6.6-1.1-10-1.4c-1-0.1-2.1-0.2-3.1-0.2
		c-1.5-0.1-3-0.1-4.5-0.1c-4.9,0-9.7,0.4-14.4,1.1c-7,1.1-13.8,3-20.2,5.6C90.1,60,89,60.4,87.8,61c0,0,0,0-0.1,0
		c-0.8,0.4-1.7,0.8-2.5,1.2c0,0-0.1,0-0.1,0c-4.7,2.1-9.5,3.8-14.5,5.1c-2.1,0.6-4.3,1-6.5,1.4c-1.3,0.2-2.5,0.5-3.8,0.7
		c-2.1,0.3-4.2,0.5-6.3,0.7c-2.3,0.2-4.7,0.3-7.1,0.3c-13.3,0-25.9-2.8-37.4-7.8c-0.1-0.1-0.3-0.1-0.4-0.1c-0.9,0-1.4,1.3-0.6,1.9
		C22.8,74.6,39.9,81,58.5,81.9c0.3,0,0.7,0,1,0c1.2,0,2.3,0.1,3.5,0.1c2.2,0,4.4-0.1,6.6-0.3c10.7-0.8,20.9-3.3,30.3-7.4
		c10.1-4.6,21.2-7.3,32.8-8c1.8-0.1,3.6-0.2,5.4-0.2c1.6,0,3.2,0.1,4.7,0.1c18.3,0.9,35.2,7.1,49.2,17.1c0.2,0.1,0.4,0.2,0.6,0.2
		C193.4,83.6,194.1,82.6,193.4,81.8z"/>
</g>
</svg>
