<?xml version="1.0" encoding="utf-8"?>
<!-- Generator: Adobe Illustrator 25.2.1, SVG Export Plug-In . SVG Version: 6.00 Build 0)  -->
<svg version="1.1" id="Camada_1" xmlns="http://www.w3.org/2000/svg" xmlns:xlink="http://www.w3.org/1999/xlink" x="0px" y="0px"
	 viewBox="0 0 24.4 24.4" style="enable-background:new 0 0 24.4 24.4;" xml:space="preserve">
<style type="text/css">
	.st0{fill:#FFFFFF;}
</style>
<g>
	<path class="st0" d="M7.6,4.7c4.5,0,9,0,13.5,0c0.5,0,1,0,1.4,0c1,0,1.8-0.9,1.8-1.9c0-1-0.8-1.9-1.9-1.9c-2.5,0-5,0-7.4,0
		c-0.1,0-0.3,0-0.4,0c-2.4,0-4.7,0-7.1,0c-1.1,0-1.9,0.9-1.9,1.9C5.7,3.9,6.5,4.7,7.6,4.7z"/>
	<path class="st0" d="M7.5,14.1c2.1,0,4.2,0,6.3,0c2.9,0,5.8,0,8.6,0c0.6,0,1.1-0.2,1.5-0.6c0.5-0.6,0.6-1.3,0.3-2
		c-0.3-0.7-0.9-1.1-1.7-1.1c-2.5,0-5,0-7.5,0c-2.5,0-5,0-7.4,0c-0.6,0-1.1,0.2-1.5,0.7c-0.5,0.6-0.6,1.3-0.3,2
		C6.1,13.7,6.7,14.1,7.5,14.1z"/>
	<path class="st0" d="M22.5,19.7c-2.2,0-4.3,0-6.5,0c-2.8,0-5.6,0-8.4,0c-0.8,0-1.5,0.5-1.8,1.2c-0.5,1.2,0.4,2.6,1.8,2.6
		c2.5,0,5,0,7.5,0c2.5,0,5,0,7.4,0c0.6,0,1.1-0.2,1.5-0.6c0.5-0.6,0.6-1.3,0.3-2C23.9,20.1,23.3,19.7,22.5,19.7z"/>
	<path class="st0" d="M1.9,0.9C0.9,0.9,0,1.8,0,2.8c0,1,0.8,1.9,1.9,1.9c1,0,1.9-0.8,1.9-1.9C3.8,1.8,2.9,0.9,1.9,0.9z"/>
	<path class="st0" d="M1.9,10.3c-1,0-1.9,0.9-1.9,1.9c0,1,0.8,1.9,1.9,1.9c1,0,1.9-0.9,1.9-1.9C3.7,11.2,2.9,10.3,1.9,10.3z"/>
	<path class="st0" d="M1.9,19.7c-1,0-1.9,0.8-1.9,1.9c0,1,0.8,1.9,1.9,1.9c1,0,1.9-0.8,1.9-1.9C3.8,20.6,2.9,19.7,1.9,19.7z"/>
</g>
</svg>
