<?xml version="1.0" encoding="utf-8"?>
<!-- Generator: Adobe Illustrator 25.2.1, SVG Export Plug-In . SVG Version: 6.00 Build 0)  -->
<svg version="1.1" id="Camada_1" xmlns="http://www.w3.org/2000/svg" xmlns:xlink="http://www.w3.org/1999/xlink" x="0px" y="0px"
	 viewBox="0 0 24.4 24.4" style="enable-background:new 0 0 24.4 24.4;" xml:space="preserve">
<style type="text/css">
	.st0{display:none;fill:#606060;}
	.st1{display:none;}
	.st2{display:inline;fill:#FFFFFF;}
	.st3{fill:#FFFFFF;}
</style>
<path class="st0" d="M12,24.4c-0.2-0.2-0.4-0.3-0.6-0.5c-2.3-2.2-4.3-4.7-5.9-7.4c-0.9-1.6-1.7-3.4-2.1-5.2C2.6,6.9,4.7,2.6,8.6,0.8
	c3.6-1.7,8-0.6,10.5,2.7c1.9,2.5,2.3,5.2,1.6,8.3c-0.5,2-1.3,3.8-2.4,5.5c-1.5,2.5-3.4,4.7-5.5,6.8c-0.2,0.2-0.4,0.3-0.6,0.5
	C12.3,24.4,12.1,24.4,12,24.4z M17.1,9.3c0.1-2.8-2-5.1-4.8-5.2C9.7,3.9,7.4,6.1,7.3,9c-0.1,2.8,2,5.1,4.8,5.3
	C14.7,14.4,17,12.2,17.1,9.3z"/>
<g class="st1">
	<path class="st2" d="M24.4,8.1c0-0.6,0-1.1-0.1-1.7c-0.1-1.1-0.4-2.2-1-3.2c-0.9-1.5-2.3-2.5-4-2.9c-1-0.3-2-0.3-3-0.3
		c-0.2,0-0.4,0-0.6,0c-0.4,0-0.7,0-1.1,0c-1.6,0-3.2,0-4.7,0C9.6,0.1,9.2,0,8.7,0C8.5,0,8.2,0,8,0C7.7,0,7.3,0,7,0
		C6.3,0,5.7,0.1,5,0.3c-1.7,0.5-3.1,1.4-4,3c-0.7,1.2-1,2.6-1,4c0,1,0,2,0,3c0,1.3,0,2.6,0,3.9c0,0.9,0,1.8,0,2.6
		c0,0.8,0.1,1.7,0.3,2.5c0.3,1.3,0.9,2.4,1.9,3.3c1,0.9,2.2,1.4,3.5,1.7c1.1,0.2,2.1,0.2,3.2,0.2c2.7,0,5.4,0,8.1,0
		c0.7,0,1.5-0.1,2.2-0.2c1.1-0.2,2.1-0.7,3-1.5c1.1-1,1.8-2.3,2.1-3.8c0.1-0.7,0.2-1.5,0.2-2.2C24.4,13.9,24.4,11,24.4,8.1z
		 M22.2,16.5c0,0.8-0.1,1.6-0.3,2.4c-0.5,1.9-1.7,2.9-3.6,3.2c-1.4,0.2-2.8,0.2-4.2,0.2c-0.6,0-1.3,0-1.9,0c-1.8,0-3.5,0-5.3-0.1
		c-0.9-0.1-1.7-0.2-2.5-0.7c-1.2-0.7-1.8-1.9-2-3.2c-0.2-1.4-0.2-2.8-0.2-4.2c0-1.9,0-3.9,0-5.8c0-0.9,0-1.7,0.3-2.6
		C3,3.8,4.2,2.8,6,2.4c1.2-0.2,2.4-0.2,3.6-0.2c2.1,0,4.3,0,6.4,0c0.9,0,1.8,0,2.7,0.2c1.8,0.5,3,1.8,3.3,3.7c0.1,1,0.2,2,0.2,3
		C22.3,11.6,22.3,14,22.2,16.5z"/>
	<path class="st2" d="M12.2,5.9c-3.5,0-6.3,2.8-6.3,6.3c0,3.5,2.8,6.3,6.3,6.3c3.5,0,6.3-2.8,6.3-6.3C18.5,8.7,15.7,5.9,12.2,5.9z
		 M12.2,16.3c-2.3,0-4.1-1.8-4.1-4.1c0-2.2,1.8-4.1,4.1-4.1c2.3,0,4.1,1.8,4.1,4.1C16.3,14.5,14.5,16.3,12.2,16.3z"/>
	<path class="st2" d="M20.1,5.5c0,0.8-0.6,1.4-1.4,1.4c-0.8,0-1.4-0.6-1.4-1.4c0-0.8,0.6-1.4,1.4-1.4C19.4,4,20.1,4.7,20.1,5.5z"/>
</g>
<path class="st3" d="M16.2,0c0.4,0,0.8,0.1,1.2,0.1c0.3,0,0.5,0,0.8,0.1c0,1.3,0,2.6,0,3.9c-0.1,0-0.2,0-0.3,0c-0.8,0-1.6,0-2.3,0
	c-1,0.1-1.5,0.6-1.5,1.6c0,1.1,0,2.1,0,3.2c1.3,0,2.7,0,4.1,0c-0.2,1.5-0.4,2.9-0.5,4.4c-1.2,0-2.3,0-3.5,0c0,3.7,0,7.4,0,11.1
	c-1.4,0-2.8,0-4.2,0c0-3.7,0-7.4,0-11.1c-1.2,0-2.4,0-3.5,0c0-1.5,0-2.9,0-4.3c1.2,0,2.3,0,3.5,0c0-0.1,0-0.2,0-0.3
	c0-1.1,0-2.3,0-3.4c0.1-1.4,0.4-2.6,1.4-3.7c0.7-0.8,1.6-1.2,2.6-1.4C13.9,0.1,14.2,0,14.5,0C15.1,0,15.6,0,16.2,0z"/>
</svg>
